<svg xmlns="http://www.w3.org/2000/svg" version="1.1" xmlns:xlink="http://www.w3.org/1999/xlink" xmlns:svgjs="http://svgjs.dev/svgjs" width="2000" height="1500" viewBox="0 0 2000 1500"><rect width="2000" height="1500" fill="#ffffff"></rect><g transform="matrix(0.44603033006244425,0,0,0.44603033006244425,552.580232658313,250)"><svg viewBox="0 0 321 360" data-background-color="#ffffff" preserveAspectRatio="xMidYMid meet" height="2242" width="2000" xmlns="http://www.w3.org/2000/svg" xmlns:xlink="http://www.w3.org/1999/xlink"><g id="tight-bounds" transform="matrix(1,0,0,1,0.5000234999999975,0)"><svg viewBox="0 0 320 360" height="360" width="320"><g><svg></svg></g><g><svg viewBox="0 0 320 360" height="360" width="320"><g><path transform="translate(-74.99272,-51.79039) scale(4.65793,4.65793)" d="M20.6 59.9l0.8 1-0.4-1.3c-0.1-0.6-0.8 0.1-0.4 0.3M21.5 59.3c0.3 0.5 0.6 1 0.6 1.5 0 0.7 0.6 1 1.1 1.2-0.7-0.8-1.1-3-1.7-2.7M59.9 16.9c1.7 0 3.3-0.2 5.1 0.2 4.4 1.1 8.1 3.3 10.6 6.4l7 11.2c0.3 2.8 0.9 5.9 0.8 9.3 0.7 0 0.6-1 1.4-1.2-0.8 2-1.2 4.5-1.4 7.4-0.5-1.6 0-4 0.1-5.3-0.7 1.1-1.1 0.3-1.1-0.2 0.1-0.8-0.3-0.7-0.6-1-1.1-1-1.8-2.1-2.6-3.8 0.5-1.3 0.6-3.2-1-4.2-0.5-0.3-1.1-0.8-1.4-1.6-0.4-1.1-1.1-2.4-0.9-4.1 0.1-0.5-1.5 1.1-2.4 0.4-3.9-2.7-7.8-5.8-12.5-8.4-2.5 0-4.3-0.9-5.2-2-0.8-1-0.2-2.3 1-2.4 0.7 0 1.5-0.2 2.1 0.2 0.1-0.4 0.5-0.9 1-0.9M50 14.6l0.2 0.1c1 0.2 1.5 1.6 2.6 1.1 0 0.7 0.1 1.4-0.1 1.9-0.3 0.8-1.2 0.8-1.9 0.8-6.7-0.4-10.6 2.4-14.7 4.8-1.1 0.7-2.3 1.2-3.2 2.1-4.3 4-9 7.7-10.1 15.1l-0.9 8.2c-0.1 0.9-1.1 1.8-0.9 2.9l0.7 4.9c-0.7-0.7-1.1 0.2-0.9 0.6 0.1 0.3 0.5 1.3 1.1 0.4 0.8 1.5 1.6 4.4 2.7 5.7 3.4 4 7.8 7.6 11.4 11.2 0.9-0.2 1.6-0.2 1.8-0.8 0.3 0.6-0.3 1.2-0.8 1.3 1.6 1 3.4 1.9 5.8 2.1 3.1 0.2 6 0.7 8.7 1.4 1.4-0.4 2.8-0.6 4.3-0.7 0.5 0 0.8-0.8 1.4-1l0.1-1c0.6 0.9 0.5-0.3 0.1-0.9 0.7 0.6 0.9 1.1 1.2 1.5 0-0.3 0.8-1.4 0.8-0.1l0.2-1.3c0.3-0.2 0.4 1.1 0.7 0.2 0.3-0.9 0.9-0.2 1.5-0.5-0.2 0.4-0.1 1.2 0.6 0.7l0.8-0.7c0.5 1.2 1.3 0.7 1.7 0.5 4.4-2.8 8.8-6.1 13-9.4l-0.1 1.3 0.5-1.6c0.5 0.5 0.9 0.1 1.1-0.2 0.6-1 1.4-2 2.7-2.9-1.6 4.3-3.5 7.7-5.9 10.5l-1 1.2c0 0.7-0.2 1.6-1 1.7-0.4 0.1-1.2-0.2-1.8 0.4-0.3 0.4 0.7 1.2-0.1 0.6-0.7-0.5-1.4 0-2.2 0.2-0.6 0.2 0.4 0.8 0.6 1.2 0.2 0.4 0.4 0.8 0.3 1.3l-1.1-1.2c-1.3 0.7-2.1 2-3.2 3-0.5 0.4-0.3 1.1-0.3 1.7-0.7 0-1.5-0.2-1.9 0.2-0.3 0.4-0.2 1-0.2 1.6-1-0.1-1.1-1.6-2-1.3-0.9 0.2-1.9 0.3-2.7 0.8 0.6 1.2-1 0.5-0.8 0.7-1.5-0.9-2.8-1.6-4.4-1-3.4-1.1-7.6-0.6-10.7-0.2 0-0.5 0.1-1-0.1-1.1-0.2 0.5-0.8 0.3-0.7 0.3-1.9-1.3-3.8-2.1-5.8-3.2-1.8 0.2-3.5-0.7-4-1.2-1.4-1.3-3-0.6-4.3-0.9-2.8-0.7-3.8-3.6-4.1-5.6-0.2-1-1-1.4-1.3-1.3-1.3-4.2-3.3-8-4.9-11.9-0.4-1-0.3-2-0.3-3.1 0.5 0.2 1 0.1 0.9-0.6-0.5-3.3-1.7-5.8-3-8.2 0.7-3.4 0.8-7.4 2.4-10.4 1.4-2.7 4-4.1 5.8-6.4 0.6-0.8 0.6-1.9 1.2-2.6 2-2 4-4.1 6.2-5.9 1-0.8 2.2 0 3.7-0.3 0.5-1.8 2.5-3.4 4.4-2.9 0.8 0.2 2.4-1.9 2.9-2.1 0.8-0.3 0.4 0.8 0.4 1.5 1.9-1.5 4.5-2.3 6.9-3.2" fill="#034620" fill-rule="nonzero" stroke="none" stroke-width="1" stroke-linecap="butt" stroke-linejoin="miter" stroke-miterlimit="10" stroke-dasharray="" stroke-dashoffset="0" font-family="none" font-weight="none" font-size="none" text-anchor="none" style="mix-blend-mode: normal" data-fill-palette-color="tertiary"></path></g><g transform="matrix(1,0,0,1,64,108.63866118051575)"><svg viewBox="0 0 192 142.7226776389685" height="142.7226776389685" width="192"><g><svg viewBox="0 0 192 142.7226776389685" height="142.7226776389685" width="192"><g><svg viewBox="0 0 192 142.7226776389685" height="142.7226776389685" width="192"><g transform="matrix(1,0,0,1,0,86.26422491690545)"><svg viewBox="0 0 192 56.458452722063036" height="56.458452722063036" width="192"><g id="textblocktransform"><svg viewBox="0 0 192 56.458452722063036" height="56.458452722063036" width="192" id="textblock"><g><svg viewBox="0 0 192 56.458452722063036" height="56.458452722063036" width="192"><g transform="matrix(1,0,0,1,0,0)"><svg width="192" viewBox="4.39 -39.84 136.32000000000002 40.080000000000005" height="56.458452722063036" data-palette-color="#034620"><path d="M4.39 0L4.39-35.99 10.25-35.99 10.25 0 4.39 0ZM20.61-14.16L28.81 0 22.61 0 15.82-13.04Q15.67-13.04 15.5-13.01 15.33-12.99 14.99-12.99 14.65-12.99 13.99-12.99 13.33-12.99 12.26-12.99L12.26-12.99 12.26-17.29 15.58-17.29Q16.65-17.29 17.72-17.65 18.8-18.02 19.68-18.85 20.56-19.68 21.09-21.17 21.63-22.66 21.63-24.85L21.63-24.85Q21.63-25.73 21.39-26.88 21.14-28.03 20.39-29.08 19.63-30.13 18.26-30.83 16.89-31.54 14.65-31.54L14.65-31.54 12.26-31.54 12.26-35.99 14.75-35.99Q17.04-35.99 19.29-35.25 21.53-34.52 23.32-33.06 25.1-31.59 26.2-29.52 27.29-27.44 27.29-24.85L27.29-24.85Q27.29-20.95 25.49-18.21 23.68-15.48 20.61-14.16L20.61-14.16ZM42.33-27.54L42.33 0 36.37 0 36.37-27.54 42.33-27.54ZM42.87-36.33L42.87-36.33Q42.87-34.86 41.84-33.86 40.82-32.86 39.35-32.86L39.35-32.86Q37.89-32.86 36.89-33.89 35.89-34.91 35.89-36.33L35.89-36.33Q35.89-37.79 36.91-38.82 37.94-39.84 39.35-39.84L39.35-39.84Q40.82-39.84 41.84-38.82 42.87-37.79 42.87-36.33ZM58.49-23.54L58.49-8.35Q58.49-6.69 58.93-5.76 59.37-4.83 60.18-4.35 60.98-3.86 61.98-3.74 62.98-3.61 64.11-3.61L64.11-3.61 64.11 0Q63.47 0.1 62.84 0.15L62.84 0.15Q62.3 0.2 61.54 0.22 60.79 0.24 60.05 0.24L60.05 0.24Q59.32 0.24 58.56 0.2 57.81 0.15 57.27 0.05L57.27 0.05Q55.61-0.24 54.68-1.39 53.75-2.54 53.29-3.93 52.83-5.32 52.7-6.64 52.58-7.96 52.58-8.69L52.58-8.69 52.58-23.54 48.97-23.54 48.97-27.54 52.58-27.54 52.58-35.35 58.49-35.35 58.49-27.54 62.89-27.54 62.89-23.54 58.49-23.54ZM79.39 0.2L69.72-27.54 76.41-27.54 82.22-7.96 82.22 0.2 79.39 0.2ZM84.22-7.96L90.08-27.54 96.72-27.54 87.05 0.2 84.22 0.2 84.22-7.96ZM109.71-27.54L109.71 0 103.75 0 103.75-27.54 109.71-27.54ZM110.24-36.33L110.24-36.33Q110.24-34.86 109.22-33.86 108.19-32.86 106.73-32.86L106.73-32.86Q105.26-32.86 104.26-33.89 103.26-34.91 103.26-36.33L103.26-36.33Q103.26-37.79 104.29-38.82 105.31-39.84 106.73-39.84L106.73-39.84Q108.19-39.84 109.22-38.82 110.24-37.79 110.24-36.33ZM139.44-27.54L129.77-13.82 140.71 0 133.97 0 125.96-10.55 125.96-17.33 132.8-27.54 139.44-27.54ZM123.96 0L118.01 0 118.01-37.94 123.96-37.94 123.96 0Z" opacity="1" transform="matrix(1,0,0,1,0,0)" fill="#034620" class="wordmark-text-0" data-fill-palette-color="primary" id="text-0"></path></svg></g></svg></g></svg></g></svg></g><g transform="matrix(1,0,0,1,56.986802797667266,0)"><svg viewBox="0 0 78.02639440466547 78.02558166189112" height="78.02558166189112" width="78.02639440466547"><g><svg xmlns="http://www.w3.org/2000/svg" xmlns:xlink="http://www.w3.org/1999/xlink" version="1.0" x="0" y="0" viewBox="4.667696776414632 4.68617458146945 90.3050339947203 90.30409335451225" enable-background="new 0 0 100 100" xml:space="preserve" height="78.02558166189112" width="78.02639440466547" class="icon-icon-0" data-fill-palette-color="accent" id="icon-0"><path d="M17.504 35.743C16.17 44.354 18.026 52.877 22.597 59.125 26.111 63.926 31.01 67.03 36.393 67.864 42.07 68.744 47.646 67.435 52.096 64.179A19.5 19.5 0 0 0 55.422 61.103C53.2 62.081 50.608 62.37 47.796 61.934 36.08 60.118 28.124 48.471 30.061 35.97 30.994 29.94 34.445 24.473 39.774 20.573 46.542 15.621 55.728 13.603 64.975 15.036 72.45 16.195 82.645 21 90.535 30.25 90.535 30.249 67.7-9.171 34.42 9.893 23.69 16.04 18.653 28.323 17.504 35.743" fill="#f2dfcf" data-fill-palette-color="accent"></path><path d="M82.544 65.256C84.204 56.701 82.67 48.116 78.337 41.7 75.007 36.77 70.23 33.482 64.88 32.446 59.241 31.352 53.62 32.45 49.05 35.537A19.5 19.5 0 0 0 45.61 38.484C47.867 37.59 50.469 37.4 53.262 37.94 64.902 40.198 72.413 52.137 70.006 64.557 68.845 70.547 65.19 75.88 59.718 79.576 52.768 84.268 43.513 85.939 34.325 84.158 26.902 82.718 16.894 77.532 9.358 67.992 9.358 67.992 30.69 108.246 64.665 90.449 75.621 84.712 81.115 72.628 82.545 65.256" fill="#f2dfcf" data-fill-palette-color="accent"></path><path d="M35.726 82.88C44.336 84.214 52.859 82.358 59.107 77.786 63.908 74.273 67.012 69.373 67.847 63.99 68.726 58.314 67.417 52.737 64.16 48.288A19.6 19.6 0 0 0 61.085 44.961C62.064 47.184 62.352 49.776 61.916 52.587 60.1 64.304 48.453 72.26 35.951 70.323 29.922 69.389 24.454 65.938 20.556 60.61 15.604 53.842 13.585 44.656 15.018 35.408 16.177 27.935 20.982 17.738 30.231 9.848 30.23 9.849-9.19 32.685 9.875 65.965 16.022 76.694 28.305 81.73 35.725 82.88" fill="#f2dfcf" data-fill-palette-color="accent"></path><path d="M90.432 35.718C84.694 24.763 72.61 19.268 65.238 17.84 56.683 16.18 48.098 17.715 41.68 22.047 36.751 25.377 33.464 30.155 32.427 35.503 31.334 41.143 32.431 46.764 35.52 51.333A19.5 19.5 0 0 0 38.465 54.773C37.571 52.518 37.382 49.916 37.923 47.124 40.18 35.482 52.119 27.97 64.538 30.377 70.528 31.54 75.862 35.194 79.558 40.667 84.25 47.615 85.92 56.87 84.14 66.059 82.7 73.482 77.513 83.489 67.973 91.025 67.973 91.025 108.228 69.695 90.432 35.718" fill="#f2dfcf" data-fill-palette-color="accent"></path></svg></g></svg></g><g></g></svg></g></svg></g></svg></g></svg></g><defs></defs></svg><rect width="320" height="360" fill="none" stroke="none" visibility="hidden"></rect></g></svg></g></svg>